<?xml version="1.0" encoding="UTF-8" standalone="no"?>
<!-- Created with Inkscape (http://www.inkscape.org/) -->

<svg
   width="13.834556mm"
   height="13.800627mm"
   viewBox="0 0 13.834556 13.800627"
   version="1.1"
   id="svg1"
   xml:space="preserve"
   xmlns="http://www.w3.org/2000/svg"
   xmlns:svg="http://www.w3.org/2000/svg"><defs
     id="defs1" /><path
     style="fill:#000000"
     d="m 5.4098894,13.772248 c -0.21829,-0.0467 -1.21204,-0.16234 -2.20835,-0.25693 -1.81147,-0.17199 -1.81147,-0.17199 -2.49777,-1.669546 -0.56073,-1.223568 -0.68918,-1.9090296 -0.70207,-3.7465196 -0.0146,-2.085846 0.0485,-2.359509 0.87102,-3.773222 1.06007,-1.822102 2.3478,-2.943347 4.14029,-3.60503301 1.70427,-0.629119 4.34748,-0.918223 5.2517596,-0.574417 0.62663,0.238245 0.70137,0.404353 0.70137,1.55891201 0,1.292253 0,1.292253 1.38906,1.527903 1.38906,0.235649 1.38906,0.235649 1.46893,1.774382 0.19121,3.683817 -2.27254,7.6221406 -5.2322796,8.3638406 -1.29073,0.32346 -2.70854,0.50197 -3.18196,0.40063 z m 3.49009,-1.286591 c 1.2222696,-0.51528 2.6823096,-1.999372 3.3711596,-3.4266856 0.68127,-1.411625 1.17099,-3.721197 0.96395,-4.546114 -0.14059,-0.560162 -0.3143,-0.646938 -1.29504,-0.646938 -1.45047,0 -1.76766,-0.341837 -1.76766,-1.905 0,-1.27000001 0,-1.27000001 -1.2748996,-1.27000001 -1.4135,0 -3.73976,0.61350801 -4.79001,1.26327401 -2.06215,1.275811 -3.46396,3.686345 -3.45378,5.939077 0.0144,3.1896536 0.83723,4.7363326 2.6659,5.0111696 1.71547,0.257827 4.46486,0.0515 5.58038,-0.418783 z"
     id="path5" /></svg>
