<?xml version="1.0" encoding="UTF-8" standalone="no"?>
<!-- Created with Inkscape (http://www.inkscape.org/) -->

<svg
   width="17.233629mm"
   height="12.096177mm"
   viewBox="0 0 17.233629 12.096177"
   version="1.1"
   id="svg1"
   xml:space="preserve"
   xmlns="http://www.w3.org/2000/svg"
   xmlns:svg="http://www.w3.org/2000/svg"><defs
     id="defs1" /><path
     style="fill:#000000"
     d="m 5.0627933,11.466653 c -0.84929,-0.4015 -2.19884,-1.4228 -3.24115,-2.4528195 -2.21617999,-2.19006 -2.32535999,-2.89837 -0.78725,-5.10732 2.82343,-4.05484002 8.23426,-5.0708 13.2775207,-2.49303 1.57209,0.80355 2.92171,2.15433 2.92171,2.92424 0,0.39232 -0.3087,0.82522 -0.85989,1.20584 -0.47295,0.32658 -0.90551,0.62835 -0.96126,0.67059 -0.0557,0.0422 0.27168,0.50165 0.72761,1.02093 0.45593,0.51927 0.82896,1.07081 0.82896,1.22565 0,0.53981 -1.7322,1.9050395 -3.43958,2.7109095 -1.49497,0.7056 -2.06568,0.82291 -4.3656307,0.89733 -2.39908,0.0776 -2.78154,0.0215 -4.10104,-0.60232 z m 6.6528607,-0.38883 c 1.60367,-0.49836 4.45964,-2.1697895 4.45964,-2.6099695 0,-0.11443 -0.35719,-0.55026 -0.79375,-0.96851 -1.06086,-1.01637 -1.001,-1.51232 0.28527,-2.36354 1.01307,-0.67041 1.05604,-0.74938 0.70297,-1.29193 -0.5191,-0.79767 -2.7765,-2.12192 -4.58897,-2.69201 -2.8501407,-0.89648002 -6.1713507,-0.39258002 -8.3540907,1.26751 -1.18446,0.90084 -2.86184999,3.18285 -2.86184999,3.89341 0,0.54586 3.33537999,3.7906395 4.49620999,4.3740795 2.10045,1.05571 4.13152,1.17504 6.6545707,0.39096 z"
     id="path8" /></svg>
