<?xml version="1.0" encoding="UTF-8" standalone="no"?>
<!-- Created with Inkscape (http://www.inkscape.org/) -->

<svg
   width="60.663876mm"
   height="46.746994mm"
   viewBox="0 0 60.663876 46.746994"
   version="1.1"
   id="svg1"
   xml:space="preserve"
   xmlns:inkscape="http://www.inkscape.org/namespaces/inkscape"
   xmlns:sodipodi="http://sodipodi.sourceforge.net/DTD/sodipodi-0.dtd"
   xmlns="http://www.w3.org/2000/svg"
   xmlns:svg="http://www.w3.org/2000/svg"><sodipodi:namedview
     id="namedview1"
     pagecolor="#ffffff"
     bordercolor="#000000"
     borderopacity="0.25"
     inkscape:showpageshadow="2"
     inkscape:pageopacity="0.0"
     inkscape:pagecheckerboard="0"
     inkscape:deskcolor="#d1d1d1"
     inkscape:document-units="mm"
     inkscape:zoom="0.71891835"
     inkscape:cx="397.12437"
     inkscape:cy="561.25984"
     inkscape:window-width="1920"
     inkscape:window-height="1009"
     inkscape:window-x="-8"
     inkscape:window-y="-8"
     inkscape:window-maximized="1"
     inkscape:current-layer="layer1"><inkscape:page
       x="0"
       y="0"
       width="60.663876"
       height="46.746994"
       id="page2"
       margin="0"
       bleed="0" /></sodipodi:namedview><defs
     id="defs1" /><g
     inkscape:label="Layer 1"
     inkscape:groupmode="layer"
     id="layer1"
     transform="translate(-81.335496,-124.29347)"><path
       style="fill:#ffffff"
       d="m 127.91501,170.98167 c -4.76694,-0.50143 -9.11401,-3.90891 -10.67237,-8.3656 -2.54624,-7.28187 1.65762,-14.99592 9.14616,-16.78314 1.85861,-0.44357 4.87642,-0.36774 6.55888,0.16483 3.46572,1.09703 6.2423,3.45747 7.801,6.63182 1.03742,2.11277 1.24728,3.05738 1.25065,5.62956 0.002,1.80853 -0.0579,2.39675 -0.34864,3.40425 -1.06908,3.70442 -3.75093,6.81526 -7.18451,8.33375 -1.81236,0.80152 -4.47993,1.20241 -6.55117,0.98453 z m 4.36343,-3.53132 c 1.45758,-0.45737 3.2652,-1.62572 4.26573,-2.75715 0.8348,-0.94401 2.00228,-3.25695 2.24651,-4.45065 0.0931,-0.45515 0.16932,-1.19835 0.16932,-1.65154 0,-1.0696 -0.43785,-1.54943 -1.34551,-1.47454 -0.53612,0.0442 -0.66233,0.14344 -1.18037,0.92788 -1.23638,1.87218 -2.74165,2.68813 -4.96999,2.69403 -1.06647,0.003 -1.47053,-0.0661 -2.05552,-0.35069 -1.41281,-0.6873 -2.48118,-2.11723 -2.70372,-3.61875 -0.26315,-1.77552 0.9455,-4.2244 2.70156,-5.47371 0.40166,-0.28575 0.81589,-0.62775 0.92052,-0.76 0.30184,-0.3815 0.23394,-1.12136 -0.13938,-1.51874 -0.67181,-0.71511 -3.07221,-0.41848 -5.20427,0.64312 -5.90583,2.94064 -7.19583,10.66994 -2.5679,15.38606 2.58638,2.63566 6.26704,3.53304 9.86302,2.40468 z m -3.85951,-2.10587 c -3.96129,-0.42587 -6.82087,-4.15969 -6.20971,-8.10816 0.19268,-1.2448 0.90239,-2.84313 1.52013,-3.42347 0.64274,-0.60382 0.78036,-0.27735 0.54629,1.29594 -0.15793,1.06152 -0.15855,1.52431 -0.003,2.31652 0.5701,2.90618 2.86016,5.20079 5.7496,5.76105 0.86511,0.16774 1.44275,0.16002 3.47217,-0.0464 0.2942,-0.0299 0.40201,0.0416 0.4375,0.29021 0.0353,0.24744 -0.14085,0.45053 -0.70466,0.81232 -1.51358,0.97127 -2.95382,1.30136 -4.80817,1.10201 z M 82.493988,159.5914 c -0.178786,-0.0723 -0.512587,-0.35436 -0.741779,-0.62674 l -0.416714,-0.49523 5.84e-4,-13.84757 c 5.73e-4,-13.61371 0.0059,-13.8563 0.315747,-14.3645 0.539596,-0.88505 0.964107,-0.96663 5.029705,-0.96663 3.227257,0 3.699735,0.0324 4.182402,0.28653 1.152192,0.60672 1.090266,-0.24657 1.089885,15.01754 -3.32e-4,13.27726 -0.009,13.67851 -0.30518,14.1643 -0.569738,0.9344 -0.829698,0.98467 -5.034854,0.9737 -2.087103,-0.005 -3.941011,-0.0691 -4.119796,-0.1414 z m 11.916258,-15.03448 0.03506,-15.18811 h 2.853973 2.853971 l 0.0845,8.6671 c 0.0894,9.15984 0.0695,8.90053 0.84707,11.08016 1.60464,4.49811 6.3353,7.9055 11.37059,8.18997 0.70623,0.0399 1.33984,0.0774 1.40802,0.0834 0.0682,0.006 0.10332,0.52032 0.0781,1.14302 l -0.0459,1.13219 -9.76025,0.0402 -9.760244,0.0402 z m 16.086174,9.94694 c -2.76437,-0.67796 -5.42493,-2.85215 -6.67763,-5.4569 -3.20562,-6.66545 1.29088,-14.29612 8.67242,-14.71731 5.27336,-0.30089 9.85179,3.4051 10.67252,8.63885 0.0789,0.50315 0.11238,0.99582 0.0744,1.09482 -0.038,0.099 -0.33802,0.30129 -0.66673,0.44951 -0.32871,0.14823 -0.90433,0.47297 -1.27915,0.72164 -0.37483,0.24868 -0.79697,0.45244 -0.93809,0.45281 -0.27478,7.1e-4 -0.50381,-0.40436 -0.3601,-0.63689 0.0479,-0.0775 0.0125,-0.67699 -0.0786,-1.33224 -0.49488,-3.558 -3.46549,-6.16531 -7.00344,-6.14691 -4.06564,0.0211 -7.40489,3.9468 -6.76055,7.94778 0.58467,3.63046 3.67783,6.14241 7.2615,5.89704 0.69497,-0.0476 1.40413,-0.10851 1.57591,-0.1354 0.4377,-0.0685 0.38271,0.55953 -0.18714,2.1374 l -0.45119,1.24931 -1.47672,0.0287 c -0.84674,0.0165 -1.86094,-0.0656 -2.37736,-0.1922 z m 1.11306,-5.77187 c -1.69204,-0.54296 -2.98433,-2.3716 -2.98433,-4.22295 0,-2.31704 1.74403,-4.22149 4.03426,-4.40533 1.8316,-0.14702 3.6119,0.88246 4.38054,2.53309 0.48413,1.03966 0.5039,2.66046 0.0448,3.6758 -0.91167,2.01635 -3.35995,3.09818 -5.4753,2.41939 z m 14.29552,-5.76052 c -0.0364,-0.0949 -0.0479,-3.19433 -0.0255,-6.88761 l 0.0408,-6.71505 1.95205,-0.0412 c 2.16819,-0.0458 2.73299,0.11461 3.34642,0.95036 0.31193,0.42497 0.3249,0.65259 0.36492,6.40272 0.0228,3.27914 -0.0123,6.04046 -0.0781,6.13625 -0.16779,0.24441 -5.50959,0.39182 -5.60062,0.15455 z m -23.07093,-6.91364 c -0.0573,-0.0573 -0.10411,-1.76464 -0.10411,-3.79417 v -3.69007 l 2.15976,-2.14005 2.15977,-2.14006 h 5.98729 5.98729 l 2.16246,2.14273 2.16247,2.14273 -0.0417,3.7504 c -0.0484,4.35195 -0.0442,4.34236 -1.36528,3.05554 -1.67737,-1.63381 -3.71261,-2.74343 -6.06157,-3.30478 -1.81664,-0.43414 -4.85416,-0.35128 -6.51348,0.17767 -2.06069,0.6569 -4.18428,1.94005 -5.53542,3.3447 -0.52572,0.54654 -0.78699,0.66582 -0.99744,0.45536 z m -18.110462,-9.36527 c -0.05977,-0.0598 -0.10867,-0.58136 -0.10867,-1.15909 0,-0.81377 0.05565,-1.07176 0.247018,-1.1452 0.13586,-0.0521 0.970541,-0.0948 1.854846,-0.0948 1.194504,0 1.654895,0.0567 1.790919,0.22061 0.110115,0.13268 0.164419,0.61507 0.136245,1.21027 l -0.04685,0.98966 -1.88242,0.0436 c -1.035331,0.024 -1.931322,-0.005 -1.991091,-0.0651 z"
       id="path1" /></g></svg>
