<?xml version="1.0" encoding="UTF-8" standalone="no"?>
<!-- Created with Inkscape (http://www.inkscape.org/) -->

<svg
   width="16.666271mm"
   height="11.49233mm"
   viewBox="0 0 16.666271 11.49233"
   version="1.1"
   id="svg1"
   xml:space="preserve"
   xmlns="http://www.w3.org/2000/svg"
   xmlns:svg="http://www.w3.org/2000/svg"><defs
     id="defs1" /><path
     style="fill:#000000"
     d="m 5.3054195,10.951125 c -1.03314,-0.408 -1.98456,-1.1138502 -3.37344,-2.5027302 C 0.86802949,7.3844348 -0.00136051,6.2998148 -5.1512118e-7,6.0381048 0.00399949,5.2903948 1.4648295,2.9326648 2.4293595,2.1174648 c 1.94032,-1.63992002 5.30986,-2.48448002 7.8390605,-1.96481002 2.65252,0.545 6.39785,2.79230002 6.39785,3.83887002 0,0.1704 -0.47625,0.62498 -1.05833,1.01019 -0.58209,0.3852 -1.05834,0.79547 -1.05834,0.9117 0,0.11623 0.35719,0.55353 0.79375,0.97179 0.43656,0.41825 0.79375,0.8945 0.79375,1.05833 0,0.56238 -1.45709,1.68904 -3.29528,2.5480002 -2.44808,1.14395 -5.3546405,1.3212 -7.5364005,0.45959 z"
     id="path7" /></svg>
