<?xml version="1.0" encoding="UTF-8" standalone="no"?>
<!-- Created with Inkscape (http://www.inkscape.org/) -->

<svg
   width="9.4241257mm"
   height="11.801331mm"
   viewBox="0 0 9.4241257 11.801331"
   version="1.1"
   id="svg1"
   xml:space="preserve"
   xmlns:inkscape="http://www.inkscape.org/namespaces/inkscape"
   xmlns:sodipodi="http://sodipodi.sourceforge.net/DTD/sodipodi-0.dtd"
   xmlns="http://www.w3.org/2000/svg"
   xmlns:svg="http://www.w3.org/2000/svg"><sodipodi:namedview
     id="namedview1"
     pagecolor="#ffffff"
     bordercolor="#000000"
     borderopacity="0.25"
     inkscape:showpageshadow="2"
     inkscape:pageopacity="0.0"
     inkscape:pagecheckerboard="0"
     inkscape:deskcolor="#d1d1d1"
     inkscape:document-units="mm"
     inkscape:zoom="0.71891835"
     inkscape:cx="397.12437"
     inkscape:cy="561.25984"
     inkscape:window-width="1920"
     inkscape:window-height="1009"
     inkscape:window-x="-8"
     inkscape:window-y="-8"
     inkscape:window-maximized="1"
     inkscape:current-layer="layer1"><inkscape:page
       x="4.9762592e-38"
       y="0"
       width="9.4241257"
       height="11.801331"
       id="page2"
       margin="0"
       bleed="0" /></sodipodi:namedview><defs
     id="defs1" /><path
     style="opacity:1;mix-blend-mode:normal;fill:#666666;fill-opacity:1"
     d="M 1.0905175,10.795792 C 0.11296751,9.2472416 -0.21345249,7.4093316 0.13585751,5.4204616 c 0.39672,-2.25883 1.34897999,-3.53148 3.46017999,-4.62438001 2.05706,-1.06488 3.05487,-1.06146 3.0395,0.0104 -0.006,0.40018001 0.02,0.72760001 0.0572,0.72760001 0.0372,0 0.47754,-0.19548 0.97857,-0.43441 1.38583,-0.66086001 1.75282,-0.37598001 1.75282,1.36065 0,2.5402 -0.90284,3.95614 -3.98297,6.24654 -1.00167,0.74485 -2.05908,1.7574104 -2.34979,2.2501304 -0.69062,1.17052 -1.18529,1.13066 -2.00082,-0.16122 z m 5.01339,-3.8165304 c 0.97108,-0.86147 1.9527,-1.92813 2.18138,-2.37035 0.41696,-0.80631 0.60801,-2.63546 0.30674,-2.93673 -0.0884,-0.0884 -0.58139,0.0398 -1.0955,0.285 -1.19,0.56747 -1.88271,0.33849 -1.70995,-0.56524 0.11025,-0.57673001 0.0529,-0.64187001 -0.43281,-0.49193001 -2.84233,0.87738001 -4.65796999,3.13562001 -4.65796999,5.79347001 0,1.02455 0.47097999,2.71244 0.96890999,3.4723804 0.39082,0.59646 0.39082,0.59646 1.53221,-0.5119204 0.62777,-0.60961 1.93591,-1.81321 2.90699,-2.67468 z"
     id="path5" /></svg>
