<?xml version="1.0" encoding="UTF-8" standalone="no"?>
<!-- Created with Inkscape (http://www.inkscape.org/) -->

<svg
   width="142.43314mm"
   height="131.07649mm"
   viewBox="0 0 142.43314 131.07649"
   version="1.1"
   id="svg1"
   xml:space="preserve"
   sodipodi:docname="white.svg"
   inkscape:version="1.4.4 (dcaf3e7, 2026-05-05)"
   xmlns:inkscape="http://www.inkscape.org/namespaces/inkscape"
   xmlns:sodipodi="http://sodipodi.sourceforge.net/DTD/sodipodi-0.dtd"
   xmlns="http://www.w3.org/2000/svg"
   xmlns:svg="http://www.w3.org/2000/svg"><sodipodi:namedview
     id="namedview1"
     pagecolor="#ffffff"
     bordercolor="#000000"
     borderopacity="0.25"
     inkscape:showpageshadow="2"
     inkscape:pageopacity="0.0"
     inkscape:pagecheckerboard="0"
     inkscape:deskcolor="#d1d1d1"
     inkscape:document-units="mm"
     inkscape:zoom="1.4142136"
     inkscape:cx="207.53583"
     inkscape:cy="196.92923"
     inkscape:window-width="1920"
     inkscape:window-height="1009"
     inkscape:window-x="-8"
     inkscape:window-y="-8"
     inkscape:window-maximized="1"
     inkscape:current-layer="layer1" /><defs
     id="defs1" /><g
     id="layer1"
     transform="translate(-34.218559,-32.436986)"
     style="display:inline"><path
       id="rect4"
       style="display:inline;opacity:1;fill:#ffffff;stroke-width:0.264583"
       d="m 96.197204,41.102091 7.887316,14.60951 0.68093,38.559023 -3.22776,0.16961 -1.18715,-0.254712 -5.762078,-3.448475 -11.214955,-8.363035 -7.781934,-5.361495 -3.473334,-2.729944 -3.799816,-3.941656 -3.605022,-6.650602 -1.235574,-4.361825 -0.224825,-6.006092 1.467557,-7.6261 7.08039,0.314196 -2.789191,-2.853767 1.767147,-6.427077 0.813093,-1.14839 8.525265,3.527343 3.78936,-4.9545 z m -26.733182,80.537439 31.638738,-16.98632 2.29747,3.27567 0.21707,7.36966 -0.16392,14.59446 -0.95886,8.68031 -2.668229,10.74373 -7.397143,7.72221 -7.85637,3.14084 -1.180562,-0.11211 -0.785221,0.67622 -2.674864,-3.47703 -8.801769,2.93828 -1.330217,-2.01011 -1.887667,-6.97076 2.016311,-2.35461 -6.273068,0.45854 -1.206579,-10.30739 2.359668,-9.07731 z"
       sodipodi:nodetypes="ccccccccccccccccccccccccccccccccccccccccc" /><path
       style="display:inline;opacity:1;fill:#ffffff;fill-opacity:1"
       d="m 65.075085,119.57653 c 0.811035,-0.15559 1.99062,-0.43138 2.621299,-0.61287 0.630679,-0.18149 1.210043,-0.32998 1.287475,-0.32998 0.579842,0 6.247728,-3.0836 7.73433,-4.20784 0.766676,-0.5798 3.74358,-2.27283 6.379913,-3.6284 0.871112,-0.44792 1.632994,-0.85388 1.693071,-0.90215 0.06008,-0.0483 0.821959,-0.44439 1.693071,-0.88029 0.871113,-0.43589 1.608418,-0.82668 1.638456,-0.86843 0.03004,-0.0417 0.595306,-0.35571 1.25615,-0.6977 3.256441,-1.68522 8.480661,-4.93712 8.652982,-5.38618 0.02829,-0.0737 -0.01784,-0.3419 -0.102516,-0.59594 -0.179981,-0.53994 0.689442,0.29722 -0.907136,0.12353 -2.538423,-0.27615 -7.442019,-0.006 -10.594967,0.58436 -1.060594,0.19848 -2.839991,0.31648 -2.839991,0.18832 0,-0.20827 1.682217,-0.71428 3.152313,-0.94821 1.47506,-0.23472 3.109235,-0.60222 3.269532,-0.73525 0.231054,-0.19176 0.02903,-0.25287 -2.054499,-0.62148 -3.017208,-0.533791 -3.929997,-0.713343 -3.930218,-0.773102 -6.69e-4,-0.180803 0.447872,-0.306382 0.78091,-0.218633 0.201192,0.05301 1.004801,0.14691 1.785798,0.208666 0.780998,0.06176 2.280185,0.200092 3.331528,0.307411 2.42834,0.247881 5.142963,0.243022 6.572843,-0.01176 1.940116,-0.345703 0.962397,0.526068 1.174006,0.07614 0.103834,-0.220776 0.216411,-0.558194 0.25017,-0.749818 0.03376,-0.191625 0.136761,-0.527104 0.228892,-0.745509 l 0.167511,-0.397101 -0.744733,-0.688454 c -3.137752,-2.900634 -4.27292,-3.790187 -10.520855,-8.24448 -1.13723,-0.810757 -3.589817,-2.486761 -4.915368,-3.358975 -0.390499,-0.256949 -0.734575,-0.502914 -0.764613,-0.54659 -0.03004,-0.04368 -0.374114,-0.298266 -0.764613,-0.565757 -0.390499,-0.26749 -1.275265,-0.872791 -1.966147,-1.345113 -1.670001,-1.141696 -2.860631,-2.044663 -3.664575,-2.779191 -1.131534,-1.033833 -3.176974,-2.647387 -4.30636,-3.39709 -2.367535,-1.571605 -5.331553,-3.697603 -8.769833,-4.495046 -1.284948,-0.298019 -0.714926,-0.502346 -3.980835,-0.497513 l -3.331527,0.0049 -1.307437,0.349486 c -0.719091,0.192218 -1.879621,0.56719 -2.578957,0.833273 -0.699335,0.266082 -1.316982,0.483786 -1.372548,0.483786 -0.164673,0 -2.97867,1.62123 -3.812678,2.196601 -0.42356,0.292208 -0.907373,0.674561 -1.07514,0.849672 l -0.305032,0.318384 0.747449,0.445108 c 2.255572,1.343199 3.150936,1.942533 3.187773,2.133812 0.03787,0.196643 -0.02105,0.204066 -1.124035,0.141605 -0.640201,-0.03626 -1.84963,-0.15037 -2.687621,-0.25359 -0.837991,-0.103221 -1.55875,-0.152544 -1.601686,-0.109608 -0.04294,0.04294 0.05364,0.628606 0.214607,1.301489 0.775924,3.243493 0.957016,4.430165 1.028492,6.739558 0.09936,3.210411 -0.348546,5.043153 -2.082214,8.519972 -0.923504,1.852057 -0.956735,1.901845 -3.423233,5.128748 -0.254694,0.33321 -0.463597,0.67451 -0.464229,0.75844 -0.0011,0.1483 0.561738,0.89148 1.03176,1.36232 0.331667,0.33225 2.274942,3.08786 2.632159,3.73247 0.165144,0.298 0.465684,0.80211 0.667867,1.12025 0.446771,0.70298 1.901767,3.70356 2.336458,4.81838 0.431374,1.10632 0.765948,1.55183 1.814147,2.4157 3.697504,3.04729 6.214933,3.78646 10.688814,4.53378 1.565068,0.26144 1.627574,0.26491 4.150755,0.23064 1.98493,-0.027 2.576713,-0.0757 3.823065,-0.31478 z"
       id="innerleaveleft"
       sodipodi:nodetypes="csssscscsssscsssssssssssscsssssssssccssssscssssscssscssssssccc" /><path
       style="display:inline;fill:#ffffff;fill-opacity:1"
       d="m 153.49796,121.17871 c 1.53123,-0.16855 3.61305,-0.67753 4.6374,-1.1338 0.24119,-0.10744 0.78261,-0.33044 1.20315,-0.49557 1.41383,-0.55516 3.2627,-1.71517 5.22512,-3.27831 1.18826,-0.9465 1.52063,-1.38401 1.66775,-2.19532 0.0267,-0.14728 0.34625,-0.99152 0.71009,-1.8761 0.36385,-0.88457 0.73479,-1.80493 0.82433,-2.04523 0.23074,-0.61926 0.87001,-1.8701 1.28397,-2.5123 1.16984,-1.81482 2.18996,-3.28977 2.92584,-4.23034 0.46213,-0.59066 0.87097,-1.17079 0.90854,-1.28917 0.0749,-0.23594 0.0236,-0.31848 -1.25435,-2.01908 -1.66331,-2.213418 -1.95494,-2.657375 -2.96215,-4.509458 -0.78371,-1.441101 -1.18319,-2.050406 -1.68301,-2.567022 -0.76955,-0.795409 -0.99343,-0.976749 -1.56727,-1.269502 -0.60946,-0.310926 -0.86064,-0.349681 -2.69125,-0.415248 -2.48208,-0.0889 -4.11673,0.18686 -8.52144,1.437536 -0.72092,0.204699 -1.94976,0.550656 -2.73076,0.768795 -4.69709,1.311932 -7.81456,2.21187 -8.95689,2.585633 -0.36046,0.117939 -0.78148,0.2316 -0.93559,0.252578 -0.15411,0.02098 -0.98972,0.243659 -1.85691,0.494847 -4.90542,1.420883 -9.96926,2.525886 -11.05321,2.632496 -0.30039,0.02954 -0.80755,0.28883 -1.22809,0.374079 -0.42054,0.08525 -1.57565,0.279696 -2.56691,0.432106 -2.23664,0.34389 -2.98611,0.49438 -2.89849,0.582 0.0797,0.0797 1.44611,0.37972 2.84317,0.62427 0.54031,0.0946 1.02939,0.21896 1.08685,0.27642 0.0665,0.0665 0.0568,0.10446 -0.0266,0.10446 -0.0721,0 -0.13108,0.0491 -0.13108,0.10923 0,0.0601 0.0737,0.10923 0.16384,0.10923 0.0901,0 0.16385,0.0492 0.16385,0.10923 0,0.13878 -0.58014,0.13636 -1.14692,-0.005 -1.37617,-0.34271 -5.3974,-0.77314 -7.21073,-0.77184 -0.67744,4.9e-4 -1.82279,0.0991 -2.62153,0.22562 -2.2755,0.36056 -1.27001,-0.64715 -1.58331,0.13592 -0.14996,0.37482 -0.24679,0.74891 -0.21518,0.8313 0.079,0.2059 3.61959,2.53953 4.82652,3.18121 4.56426,2.42664 6.40671,3.39784 9.01151,4.75017 4.04432,2.09969 5.87123,3.14781 7.04536,4.04201 0.30039,0.22877 0.74582,0.5315 0.98985,0.67273 0.93378,0.54043 3.17782,1.8873 3.54321,2.12664 1.18681,0.77739 4.7872,1.96028 7.97382,2.61975 1.68552,0.34882 4.56792,1.38133 6.80751,1.13481 z"
       id="innerleaveright"
       sodipodi:nodetypes="cssssssssssssssssssssssssssssscscsssssssscc" /><path
       id="spek"
       style="display:inline;fill:#ffffff"
       d="m 128.044,102.78132 c 0,-0.0601 0.0737,-0.10923 0.16384,-0.10923 0.0901,0 0.16385,0.0492 0.16385,0.10923 0,0.0601 -0.0737,0.10923 -0.16385,0.10923 -0.0901,0 -0.16384,-0.0492 -0.16384,-0.10923 z m -45.11216,-0.21846 c 0,-0.0601 0.07373,-0.10923 0.163845,-0.10923 0.09011,0 0.163846,0.0492 0.163846,0.10923 0,0.0601 -0.07373,0.10923 -0.163846,0.10923 -0.09011,0 -0.163845,-0.0491 -0.163845,-0.10923 z m 17.69533,16.82149 c 0,-0.0601 0.0491,-0.10923 0.10923,-0.10923 0.0601,0 0.10923,0.0491 0.10923,0.10923 0,0.0601 -0.0492,0.10923 -0.10923,0.10923 -0.0601,0 -0.10923,-0.0492 -0.10923,-0.10923 z m 0,-0.75817 c 0,-0.0565 0.0491,-0.13316 0.10923,-0.17029 0.0601,-0.0371 0.10923,0.009 0.10923,0.10278 0,0.0937 -0.0492,0.17029 -0.10923,0.17029 -0.0601,0 -0.10923,-0.0463 -0.10923,-0.10278 z M 93.388126,86.658211 c -0.03643,-0.03643 0.03131,-0.170947 0.150529,-0.29892 0.184912,-0.198479 0.231862,-0.208811 0.319441,-0.0703 0.173307,0.274103 0.118149,0.435458 -0.148856,0.435458 -0.140179,0 -0.28468,-0.02981 -0.321114,-0.06624 z m -0.73478,-1.572213 c 0,-0.06008 0.04915,-0.10923 0.10923,-0.10923 0.06008,0 0.109231,0.04915 0.109231,0.10923 0,0.06008 -0.04915,0.10923 -0.109231,0.10923 -0.06008,0 -0.10923,-0.04915 -0.10923,-0.10923 z m -1.174227,-1.199822 c -0.135173,-0.110316 -0.245768,-0.254139 -0.245768,-0.319605 0,-0.06547 -0.07373,-0.119029 -0.163846,-0.119029 -0.208867,0 -0.213263,-0.36916 -0.0064,-0.540808 0.129101,-0.107144 0.208843,-0.04915 0.443449,0.322485 0.157323,0.249216 0.270817,0.544113 0.252208,0.655327 -0.03285,0.196292 -0.04102,0.19634 -0.279603,0.0016 z m 10.568041,-0.556967 c 0,-0.266199 0.25525,-0.228572 0.30839,0.04546 0.0209,0.107784 -0.0348,0.182101 -0.13653,0.182101 -0.10133,0 -0.17186,-0.09339 -0.17186,-0.227563 z M 90.586592,82.29152 c 0.0052,-0.127247 0.03112,-0.15313 0.06599,-0.06599 0.03155,0.07885 0.02767,0.173062 -0.0086,0.209358 -0.0363,0.0363 -0.06211,-0.02822 -0.05737,-0.143365 z m 10.368268,-2.076354 c 0,-0.09566 -0.0983,-0.298902 -0.21846,-0.451652 -0.12016,-0.152751 -0.21846,-0.320253 -0.21846,-0.372228 0,-0.186883 0.31881,-0.08949 0.48534,0.148266 0.18929,0.270254 0.23076,0.849538 0.0608,0.849538 -0.0601,0 -0.10923,-0.07827 -0.10923,-0.173924 z m -7.20921,30.867664 c 0,-0.0601 0.05205,-0.10923 0.115677,-0.10923 0.06362,0 0.0853,0.0492 0.04817,0.10923 -0.03713,0.0601 -0.08918,0.10924 -0.115677,0.10924 -0.02649,0 -0.04817,-0.0492 -0.04817,-0.10924 z m 6.56122,9.07159 c -0.006,-0.28725 0.0229,-0.34653 0.12012,-0.24933 0.0943,0.0943 0.0962,0.19249 0.007,0.37684 -0.11281,0.23416 -0.12057,0.2264 -0.12751,-0.12751 z" /><path
       id="rect4-8"
       style="display:inline;fill:#ffffff;stroke-width:0.264583"
       d="m 115.3088,41.127471 -2.55615,2.775421 -2.06682,3.486615 -0.33023,2.602885 -1.16254,3.001606 -1.10793,4.267388 -0.35453,5.904702 0.25549,7.078964 0.2891,11.531468 0.76151,11.070921 0.99533,0.0952 0.46198,0.01149 5.76208,-3.44848 11.21495,-8.36303 7.78194,-5.3615 3.47333,-2.72994 3.79982,-3.94166 3.60502,-6.6506 1.23558,-4.36182 0.88628,-4.749319 -1.46756,-7.6261 -7.08039,0.31419 1.61989,-3.50858 -1.85461,-4.780073 -0.54852,-1.346827 -7.53307,2.73359 -3.78936,-4.9545 -4.36697,1.232292 -4.06513,2.170705 z m 25.54921,82.018089 -31.10957,-17.2509 -1.7362,1.96605 -0.21707,7.36966 0.16392,14.59446 0.95886,8.68031 3.97785,10.74373 6.18106,7.81575 4.87981,3.8023 2.99957,-0.2444 1.94277,0.14705 2.67487,-3.47703 7.14812,0.92083 1.39637,-2.63849 0.79625,-3.03509 0.6626,-3.64445 5.28088,0.19396 1.14044,-9.64594 -1.9628,-9.67262 z"
       sodipodi:nodetypes="cccccccccccccccccccccccccccccccccccccccccccccccccc" /><path
       style="display:inline;fill:#ffffff;fill-opacity:1;stroke-width:0.865529"
       d="m 155.63036,72.638239 c 2.38835,0.2486 8.62672,1.053222 11.47031,6.488873 0.80892,2.888413 -1.55757,13.971629 -1.81892,14.584009 -0.42315,0.414288 -0.62063,0.511179 -2.11593,1.038199 -2.02746,0.714584 -3.44906,0.909016 -7.41077,1.013615 -0.64843,0.01709 -1.75291,0.04874 -2.45444,0.07028 -4.21908,0.129518 -7.02684,0.191352 -8.06705,0.177665 -0.32824,-0.0044 -0.7054,0.01055 -0.83812,0.03301 -0.13273,0.02241 -6.58545,2.843564 -7.35033,2.68363 -4.57209,-0.956005 -4.84918,1.239333 -8.40103,0.299643 -1.23491,-1.179673 -1.65905,-1.554739 -1.60931,-1.649759 0.0452,-0.0864 1.09653,-0.68722 2.18746,-1.250111 0.42191,-0.217713 0.7938,-0.446773 0.82643,-0.509088 0.0378,-0.07215 0.0196,-0.101002 -0.0489,-0.07944 -0.0596,0.0186 -0.12097,-0.0067 -0.13651,-0.05638 -0.0155,-0.04967 0.0326,-0.109269 0.10713,-0.132548 0.0745,-0.02325 0.12265,-0.08297 0.10715,-0.132559 -0.0358,-0.114657 -0.51447,0.03721 -0.94618,0.300385 -1.0483,0.638581 -4.25899,2.032862 -5.7573,2.500182 -0.55975,0.17458 -1.53138,0.38898 -2.2239,0.49078 -1.97289,0.28992 -7.60084,2.781595 -8.0619,2.215595 -0.22071,-0.2709 -0.39733,-0.55492 -0.3925,-0.63115 0.012,-0.190491 2.33412,-3.032832 3.16541,-3.87467 9.85554,-8.783431 8.53045,-6.054864 21.33474,-16.905337 0.93683,-0.793879 2.77007,-2.855923 5.23216,-4.223827 1.43012,-0.794566 6.35894,-3.163316 13.2023,-2.450997 z"
       id="innerleaveright-1"
       sodipodi:nodetypes="sccscsccsccssccsccsccccsss" /></g></svg>
